<svg id="Layer_1" data-name="Layer 1" xmlns="http://www.w3.org/2000/svg" viewBox="0 0 140 36"><defs><style>.cls-1,.cls-2{fill:#fff;}.cls-2{font-size:6.87px;font-family:Montserrat-ExtraBold, Montserrat;font-weight:800;letter-spacing:-0.03em;}</style></defs><path class="cls-1" d="M12.34,26a11.63,11.63,0,0,1-4.22-.75,9.92,9.92,0,0,1-3.38-2.13A9.78,9.78,0,0,1,2.5,19.83a10.36,10.36,0,0,1-.79-4.09,10.36,10.36,0,0,1,.79-4.09A9.76,9.76,0,0,1,4.75,8.39,10.21,10.21,0,0,1,8.13,6.26a11.62,11.62,0,0,1,4.24-.75,11.47,11.47,0,0,1,4.46.84,8.8,8.8,0,0,1,3.41,2.48l-2.39,2.25a6.95,6.95,0,0,0-5.31-2.33,7.74,7.74,0,0,0-2.86.51A6.58,6.58,0,0,0,6,12.93a7.71,7.71,0,0,0,0,5.62,6.41,6.41,0,0,0,1.48,2.22,6.51,6.51,0,0,0,2.24,1.45,7.74,7.74,0,0,0,2.86.51,7.15,7.15,0,0,0,2.9-.58,7,7,0,0,0,2.41-1.78l2.39,2.28a9.09,9.09,0,0,1-3.41,2.47A11.37,11.37,0,0,1,12.34,26Z"/><path class="cls-1" d="M22.74,25.69V10.51h3.39v4.18l-.4-1.22a4.76,4.76,0,0,1,2.14-2.33,7.62,7.62,0,0,1,3.66-.8v3.38a4.23,4.23,0,0,0-.43-.07h-.4a4.37,4.37,0,0,0-3.21,1.18,4.69,4.69,0,0,0-1.19,3.51v7.36Z"/><path class="cls-1" d="M40.82,25.89a9.27,9.27,0,0,1-4.42-1,7.38,7.38,0,0,1-2.93-2.77,7.78,7.78,0,0,1-1-4,7.8,7.8,0,0,1,1-4,7.18,7.18,0,0,1,2.78-2.74,8.08,8.08,0,0,1,4.05-1,7.89,7.89,0,0,1,3.95,1A6.89,6.89,0,0,1,47,14a8.3,8.3,0,0,1,1,4.15c0,.15,0,.32,0,.51s0,.37,0,.54H35.25V16.88H46l-1.39.74a4.39,4.39,0,0,0-.54-2.31,4.15,4.15,0,0,0-1.55-1.56,4.41,4.41,0,0,0-2.26-.57,4.5,4.5,0,0,0-2.29.57,4.08,4.08,0,0,0-1.53,1.58,4.83,4.83,0,0,0-.56,2.37v.57a4.62,4.62,0,0,0,.63,2.42,4.18,4.18,0,0,0,1.76,1.62,5.77,5.77,0,0,0,2.62.57,6.41,6.41,0,0,0,2.3-.4A5,5,0,0,0,45,21.23l1.9,2.19a6.78,6.78,0,0,1-2.57,1.83A9.12,9.12,0,0,1,40.82,25.89Z"/><path class="cls-1" d="M57.08,25.89a8,8,0,0,1-3.94-1,7.16,7.16,0,0,1-2.74-2.72,8.1,8.1,0,0,1-1-4.09,8.1,8.1,0,0,1,1-4.09,7,7,0,0,1,2.74-2.7,8,8,0,0,1,3.94-1,6.87,6.87,0,0,1,3.41.84,6,6,0,0,1,2.39,2.54,9.51,9.51,0,0,1,.88,4.38,9.76,9.76,0,0,1-.85,4.36A5.88,5.88,0,0,1,60.55,25,7,7,0,0,1,57.08,25.89Zm.43-3a4.6,4.6,0,0,0,2.29-.57,4.28,4.28,0,0,0,1.62-1.65A5.12,5.12,0,0,0,62,18.1a5.08,5.08,0,0,0-.61-2.54,4.33,4.33,0,0,0-1.62-1.64,4.6,4.6,0,0,0-2.29-.57,4.55,4.55,0,0,0-2.29.57,4.33,4.33,0,0,0-1.62,1.64A5,5,0,0,0,53,18.1a5,5,0,0,0,.61,2.53,4.28,4.28,0,0,0,1.62,1.65A4.55,4.55,0,0,0,57.51,22.85Zm4.6,2.84V22.11l.14-4L62,14V4.6h3.52V25.69Z"/><path class="cls-1" d="M69.47,25.69V10.51H73V25.69Z"/><path class="cls-1" d="M75,13.47V10.62H85.08v2.85Zm7.73,12.42a5.39,5.39,0,0,1-3.86-1.29,5,5,0,0,1-1.37-3.83V7.16H81V20.69a2.34,2.34,0,0,0,.56,1.67,2,2,0,0,0,1.55.6,3.17,3.17,0,0,0,2-.62l1,2.52a4,4,0,0,1-1.53.77A6.94,6.94,0,0,1,82.69,25.89Z"/><path class="cls-1" d="M88.66,25.69V5.79h8.19a11.1,11.1,0,0,1,4.53.85,6.58,6.58,0,0,1,2.91,2.45,6.77,6.77,0,0,1,1,3.78,6.77,6.77,0,0,1-1,3.78,6.5,6.5,0,0,1-2.91,2.44,10.93,10.93,0,0,1-4.53.86H90.71l1.65-1.74v7.48Zm3.7-7.08-1.65-1.79h6a5.57,5.57,0,0,0,3.68-1,3.59,3.59,0,0,0,1.23-2.91,3.59,3.59,0,0,0-1.23-2.93,5.69,5.69,0,0,0-3.68-1h-6L92.36,7.1Z"/><path class="cls-1" d="M112.4,25.89a7.28,7.28,0,0,1-3-.58,4.61,4.61,0,0,1-2-1.62,4.11,4.11,0,0,1-.7-2.35,4.37,4.37,0,0,1,.61-2.3,4.14,4.14,0,0,1,2-1.62,9.49,9.49,0,0,1,3.7-.6h4.4v2.36H113.3a3.69,3.69,0,0,0-2.44.58,1.89,1.89,0,0,0-.63,1.44,1.8,1.8,0,0,0,.77,1.53,3.52,3.52,0,0,0,2.13.57,4.69,4.69,0,0,0,2.35-.59A3.39,3.39,0,0,0,117,20.94l.6,2.13a4,4,0,0,1-1.83,2.08A6.85,6.85,0,0,1,112.4,25.89Zm4.77-.2V22.62L117,22V16.59a3.14,3.14,0,0,0-.94-2.43,4.09,4.09,0,0,0-2.84-.86,8.27,8.27,0,0,0-2.51.39,6.2,6.2,0,0,0-2.09,1.11l-1.4-2.58a8.36,8.36,0,0,1,2.92-1.41,13.1,13.1,0,0,1,3.51-.47,7.5,7.5,0,0,1,5.1,1.58,6.14,6.14,0,0,1,1.81,4.87v8.9Z"/><path class="cls-1" d="M125.33,31.4a6.89,6.89,0,0,1-2.22-.37,5.16,5.16,0,0,1-1.85-1l1.43-2.62a4.07,4.07,0,0,0,1.22.77,3.57,3.57,0,0,0,1.39.29,2.35,2.35,0,0,0,1.56-.49A4.3,4.3,0,0,0,128,26.34l.88-2,.29-.42,5.74-13.42h3.41l-7.11,16.4a9.91,9.91,0,0,1-1.57,2.7,4.83,4.83,0,0,1-1.94,1.4A6.76,6.76,0,0,1,125.33,31.4Zm3.13-5.17L121.6,10.51h3.7l5.57,13.1Z"/><text class="cls-2" transform="matrix(0, 1, 1, 0, 73.63, 4.6)">C</text></svg>